<svg xmlns="http://www.w3.org/2000/svg" viewBox="0 0 43.75 43.75"><defs><style>.cls-1{fill:#3b3c3e;}.cls-2{fill:#edba33;}</style></defs><title>Asset 11</title><g id="Layer_2" data-name="Layer 2"><g id="Main_Content" data-name="Main Content"><circle class="cls-1" cx="21.88" cy="21.88" r="21.88"/><path class="cls-2" d="M21.88,0A21.88,21.88,0,1,0,43.75,21.88,21.87,21.87,0,0,0,21.88,0ZM22,14.47a8.52,8.52,0,0,1,7.19,7l-1.89.33a6.59,6.59,0,0,0-1.83-3.53,6.5,6.5,0,0,0-3.74-1.87Zm9.2,17c-.55.56-1.14,1.09-1.67,1.68a3.27,3.27,0,0,1-2.81,1.07,11.57,11.57,0,0,1-4.49-1.3,24.56,24.56,0,0,1-8.09-6.33A22.27,22.27,0,0,1,10.21,20a8.46,8.46,0,0,1-.65-3.66,3,3,0,0,1,.93-2c.63-.59,1.22-1.21,1.83-1.82a1.74,1.74,0,0,1,2.62,0c.5.48,1,1,1.48,1.47s.95,1,1.43,1.44a1.74,1.74,0,0,1,0,2.68c-.6.6-1.19,1.21-1.8,1.8a.38.38,0,0,0-.1.48A11.16,11.16,0,0,0,17.59,23a19,19,0,0,0,4.57,4.15c.38.24.8.41,1.2.63a.36.36,0,0,0,.5-.09c.6-.62,1.21-1.22,1.82-1.83a1.73,1.73,0,0,1,2.62,0c1,1,2,1.95,2.93,2.93A1.75,1.75,0,0,1,31.22,31.45Zm1.1-10A12.2,12.2,0,0,0,22,11.44l.27-1.9A14.1,14.1,0,0,1,34.21,21.12Z"/></g></g></svg>