<?xml version="1.0" encoding="utf-8"?>
<!-- Generator: Adobe Illustrator 23.0.0, SVG Export Plug-In . SVG Version: 6.00 Build 0)  -->
<svg version="1.1" id="Layer_1" xmlns="http://www.w3.org/2000/svg" xmlns:xlink="http://www.w3.org/1999/xlink" x="0px" y="0px"
	 viewBox="0 0 200 200" style="enable-background:new 0 0 200 200;" xml:space="preserve">
<style type="text/css">
	.st0{fill:#EDBA32;}
</style>
<path class="st0" d="M183.3,104.3H76.3c-3.7,0-6.7-3-6.7-6.7v-4.4c0-3.7,3-6.7,6.7-6.7h106.9c3.7,0,6.8,3,6.8,6.7v4.4
	C190,101.2,187,104.3,183.3,104.3z"/>
<path class="st0" d="M183.3,49.5H17.7c-3.7,0-6.7-3-6.7-6.7v-4.4c0-3.7,3-6.7,6.7-6.7h165.5c3.7,0,6.8,3,6.8,6.7v4.4
	C190,46.5,187,49.5,183.3,49.5z"/>
<path class="st0" d="M183.3,159H17.7c-3.7,0-6.7-3-6.7-6.8v-4.4c0-3.7,3-6.7,6.7-6.7h165.5c3.7,0,6.8,3,6.8,6.7v4.4
	C190,156,187,159,183.3,159z"/>
</svg>
