<svg xmlns="http://www.w3.org/2000/svg" viewBox="0 0 43.75 43.75"><defs><style>.cls-1{fill:#3b3c3e;}.cls-2{fill:#edba33;}</style></defs><title>Asset 14</title><g id="Layer_2" data-name="Layer 2"><g id="Main_Content" data-name="Main Content"><circle class="cls-1" cx="21.88" cy="21.88" r="21.88"/><path class="cls-2" d="M21.87,26.25a4.38,4.38,0,1,0-4.37-4.38A4.39,4.39,0,0,0,21.87,26.25Z"/><polygon class="cls-2" points="31.44 16.52 31.44 12.85 31.44 12.3 30.89 12.3 27.22 12.31 27.23 16.53 31.44 16.52"/><path class="cls-2" d="M21.88,0A21.88,21.88,0,1,0,43.75,21.88,21.9,21.9,0,0,0,21.88,0ZM34.32,19.32V29.51a4.82,4.82,0,0,1-4.81,4.81H14.24a4.82,4.82,0,0,1-4.81-4.81V14.24a4.81,4.81,0,0,1,4.81-4.8H29.51a4.81,4.81,0,0,1,4.81,4.8Z"/><path class="cls-2" d="M28.68,21.88a6.81,6.81,0,1,1-13.11-2.56H11.86V29.51a2.39,2.39,0,0,0,2.38,2.38H29.51a2.39,2.39,0,0,0,2.38-2.38V19.32H28.17A6.61,6.61,0,0,1,28.68,21.88Z"/></g></g></svg>