<svg xmlns="http://www.w3.org/2000/svg" viewBox="0 0 34.8 43.75"><defs><style>.cls-1{fill:#3b3c3e;}.cls-2{fill:#edba33;}</style></defs><title>Asset 12</title><g id="Layer_2" data-name="Layer 2"><g id="Main_Content" data-name="Main Content"><path class="cls-1" d="M29.61,4.05A19.09,19.09,0,0,0,17.4,0a19,19,0,0,0-12.2,4A14.4,14.4,0,0,0,.13,13.86,23.06,23.06,0,0,0,2.39,26.3c2.75,5.83,9.32,13,14,17.11a1.26,1.26,0,0,0,1,.33,1.25,1.25,0,0,0,1-.33c4.7-4.11,11.26-11.28,14-17.11a23.06,23.06,0,0,0,2.26-12.44A14.48,14.48,0,0,0,29.61,4.05Z"/><path class="cls-2" d="M29.61,4.05A19.09,19.09,0,0,0,17.4,0a19,19,0,0,0-12.2,4A14.4,14.4,0,0,0,.13,13.86,23.06,23.06,0,0,0,2.39,26.3c2.75,5.83,9.32,13,14,17.11a1.26,1.26,0,0,0,1,.33,1.25,1.25,0,0,0,1-.33c4.7-4.11,11.26-11.28,14-17.11a23.06,23.06,0,0,0,2.26-12.44A14.48,14.48,0,0,0,29.61,4.05Zm2.62,12.33a20.47,20.47,0,0,1-3.11,10.54A83.48,83.48,0,0,1,17.4,40.83,84.45,84.45,0,0,1,5.68,26.92,20.57,20.57,0,0,1,2.57,16.38a13.5,13.5,0,0,1,3.1-9.27c4.38-4.93,12.77-6,18.62-3.35a14.86,14.86,0,0,1,4.84,3.35A13.41,13.41,0,0,1,32.23,16.38Z"/><path class="cls-2" d="M14.8,29.76a1.22,1.22,0,0,0,.54-.65c2.28-6.19-.39-11.68-4-16.66A6.76,6.76,0,0,0,9.7,10.94c-1-.59-2-.8-2.48.48C4.74,18.52,6.94,25.89,13.35,30A1.07,1.07,0,0,0,14.8,29.76Z"/><path class="cls-2" d="M28.24,12.56c-.43-1-1.59-3.11-2.9-1.75-4.8,5-8.11,11.36-5.57,18.3a1.22,1.22,0,0,0,.55.64,1.06,1.06,0,0,0,1.45.23,15.67,15.67,0,0,0,7.05-15A7.55,7.55,0,0,0,28.24,12.56Z"/><path class="cls-2" d="M19.08,33.14a2.36,2.36,0,0,1-3.26.08c-1.27-1-3.11.77-1.83,1.83A5.06,5.06,0,0,0,20.91,35C22.19,33.89,20.35,32.08,19.08,33.14Z"/></g></g></svg>