<?xml version="1.0" encoding="utf-8"?>
<!-- Generator: Adobe Illustrator 23.0.0, SVG Export Plug-In . SVG Version: 6.00 Build 0)  -->
<svg version="1.1" id="Capa_1" xmlns="http://www.w3.org/2000/svg" xmlns:xlink="http://www.w3.org/1999/xlink" x="0px" y="0px"
	 viewBox="0 0 512 512" style="enable-background:new 0 0 512 512;" xml:space="preserve">
<style type="text/css">
	.st0{fill:#EDBA33;}
	.st1{fill:#3B3C3E;}
</style>
<circle class="st0" cx="256.6" cy="256.5" r="254.8"/>
<g>
	<g>
		<g>
			<rect x="409" y="293.9" class="st1" width="11.8" height="11.8"/>
		</g>
	</g>
	<g>
		<g>
			<rect x="409" y="317.4" class="st1" width="11.8" height="11.8"/>
		</g>
	</g>
	<g>
		<g>
			<rect x="203.3" y="331.5" class="st1" width="31.3" height="11.8"/>
		</g>
	</g>
	<g>
		<g>
			<rect x="275.8" y="114.1" class="st1" width="11.8" height="11.8"/>
		</g>
	</g>
	<g>
		<g>
			<rect x="269.9" y="317.4" class="st1" width="31.3" height="11.8"/>
		</g>
	</g>
	<g>
		<g>
			<rect x="269.9" y="302.1" class="st1" width="31.3" height="11.8"/>
		</g>
	</g>
	<g>
		<g>
			<rect x="226.8" y="259" class="st1" width="11.8" height="11.8"/>
		</g>
	</g>
	<g>
		<g>
			<rect x="154" y="278.6" class="st1" width="11.8" height="11.8"/>
		</g>
	</g>
	<g>
		<g>
			<rect x="313.8" y="353" class="st1" width="11.8" height="11.8"/>
		</g>
	</g>
	<g>
		<g>
			<path class="st1" d="M193.6,204.2v50.9h50.9v-50.9H193.6z M232.7,243.4h-27.4v-27.4h27.4V243.4z"/>
		</g>
	</g>
	<g>
		<g>
			<path class="st1" d="M143,333.5c-9.7,0-17.6,7.9-17.6,17.6c0,9.7,7.9,17.6,17.6,17.6s17.6-7.9,17.6-17.6
				C160.6,341.4,152.7,333.5,143,333.5z M143,357c-3.2,0-5.9-2.6-5.9-5.9s2.6-5.9,5.9-5.9c3.2,0,5.9,2.6,5.9,5.9
				C148.9,354.3,146.3,357,143,357z"/>
		</g>
	</g>
	<g>
		<g>
			<path class="st1" d="M372.2,333.5c-9.7,0-17.6,7.9-17.6,17.6c0,9.7,7.9,17.6,17.6,17.6c9.7,0,17.6-7.9,17.6-17.6
				C389.8,341.4,381.9,333.5,372.2,333.5z M372.2,357c-3.2,0-5.9-2.6-5.9-5.9s2.6-5.9,5.9-5.9s5.9,2.6,5.9,5.9
				C378,354.3,375.4,357,372.2,357z"/>
		</g>
	</g>
	<g>
		<g>
			<path class="st1" d="M143.5,198.7l-20.1,68.2h48.2v-68.2H143.5L143.5,198.7z M159.9,255.1h-20.7l13.1-44.7h7.6V255.1z"/>
		</g>
	</g>
	<g>
		<g>
			<path class="st1" d="M390.4,182.6H274.9c-14.6,0-26.5,12-26.5,26.7v75.2h168.4v-75.2C416.8,194.6,405,182.6,390.4,182.6z
				 M339.8,197.2h50.5c5.8,0,10.7,4.2,11.8,9.7h-62.3V197.2z M325.4,269.9h-62.6v-48.5h62.6V269.9z M325.4,206.9h-62.3
				c1.1-5.5,6-9.7,11.8-9.7h50.5V206.9z M402.4,269.9h-62.6v-48.5h62.6V269.9z"/>
		</g>
	</g>
	<g>
		<g>
			<rect x="297" y="125.9" class="st1" width="11.8" height="11.8"/>
		</g>
	</g>
	<g>
		<g>
			<rect x="297" y="102.3" class="st1" width="11.8" height="11.8"/>
		</g>
	</g>
	<g>
		<g>
			<path class="st1" d="M419.2,157.2h-77.9c8.3-29.8,6.5-61.3-5.5-90.4l-2.2-5.4L302.9,74l2.2,5.4c0.4,0.9,0.7,1.8,1.1,2.8
				L230.8,120l45.5,22.7v14.5H145c-16.2,0-29.4,13.2-29.4,29.4v5.9h9.8l-20.8,70.7l-39.9,34.3v67.3h43.8
				c5.5,13.8,18.9,23.5,34.6,23.5s29.1-9.8,34.6-23.5h0.3h124.2V353h-41.9v-3.9H335c0,0.6-0.1,1.3-0.1,2c0,20.5,16.7,37.2,37.2,37.2
				c15.7,0,29.1-9.8,34.6-23.5h41.8V192.4v-5.9C448.6,170.4,435.4,157.2,419.2,157.2z M318.1,80.5l8.9-3.7
				c10.2,28.1,10.2,58.3,0,86.4l-8.9-3.7C327.3,133.8,327.3,106.1,318.1,80.5z M257,120l52.8-26.4c4.5,17.4,4.5,35.5,0,52.8L257,120
				z M105.9,353H76.4v-3.9h29.4c0,0.6-0.1,1.3-0.1,2C105.8,351.7,105.8,352.4,105.9,353z M143,376.5c-14,0-25.5-11.4-25.5-25.5
				c0-14,11.4-25.5,25.5-25.5s25.5,11.4,25.5,25.5S157.1,376.5,143,376.5z M177.9,338.1c-5.3-14.1-18.9-24.2-34.9-24.2
				c-15.7,0-29.1,9.8-34.6,23.5h-32v-11.8h13.7v-11.8H76.4v-11l38.4-33.1l22.8-77.4h40.3L177.9,338.1L177.9,338.1z M248.4,353h-41.1
				h-17.6v-31.3h58.8L248.4,353L248.4,353z M248.4,310h-58.8V192.4h58.8L248.4,310L248.4,310z M128.8,180.7h-0.5
				c2.4-6.8,9-11.8,16.6-11.8h148.5v-11.8H288v-8.6l18.3,9.1c-0.4,0.9-0.7,1.8-1.1,2.8l-2.2,5.4l30.6,12.7l2.2-5.4
				c0.6-1.4,1.1-2.8,1.7-4.2h81.8c7.7,0,14.2,4.9,16.6,11.8L128.8,180.7L128.8,180.7z M372.2,376.5c-14,0-25.5-11.4-25.5-25.5
				c0-14,11.4-25.5,25.5-25.5c14,0,25.5,11.4,25.5,25.5C397.6,365.1,386.2,376.5,372.2,376.5z M436.8,353h-27.5c0-0.6,0.1-1.3,0.1-2
				c0-0.7,0-1.3-0.1-2h27.5V353z M436.8,337.4h-30c-5.5-13.8-18.9-23.5-34.6-23.5c-15.7,0-29.1,9.8-34.6,23.5h-77.4V192.4h144.9
				v78.3h31.7L436.8,337.4L436.8,337.4z M436.8,259h-20v-7.8h20V259z M436.8,239.4h-20v-7.8h20V239.4z M436.8,219.9h-20V212h20
				V219.9z M436.8,200.3h-20v-7.8h20V200.3z"/>
		</g>
	</g>
</g>
</svg>
